<svg xmlns="http://www.w3.org/2000/svg">
  <symbol id="logo" viewBox="0 0 194 35">
    <path
      d="M14.201 5.855v28.327H9.56V5.855H0V.816h23.76v5.04H14.2zm39.327 23.97c-3.209 3.405-6.964 5.107-11.265 5.107-4.37 0-8.125-1.702-11.266-5.107-3.14-3.405-4.71-7.558-4.71-12.325 0-4.767 1.57-8.852 4.71-12.325C34.137 1.702 37.893 0 42.263 0c4.3 0 8.056 1.702 11.265 5.107 3.14 3.473 4.711 7.626 4.711 12.325 0 4.903-1.57 8.988-4.711 12.393zM50.319 8.648c-2.253-2.383-4.916-3.61-8.056-3.61-3.141 0-5.872 1.227-8.057 3.61-2.253 2.52-3.345 5.447-3.345 8.852 0 3.405 1.092 6.333 3.345 8.852 2.253 2.451 4.984 3.677 8.057 3.677 3.072 0 5.803-1.226 8.056-3.677 2.185-2.451 3.277-5.38 3.277-8.852.069-3.405-1.024-6.4-3.277-8.852zm39.804 21.179c-3.209 3.404-6.964 5.107-11.265 5.107-4.37 0-8.193-1.703-11.334-5.107-3.072-3.473-4.643-7.627-4.643-12.393 0-4.767 1.57-8.853 4.711-12.325 3.141-3.473 6.896-5.175 11.266-5.175s8.261 1.838 11.607 5.515l-3.278 3.405c-2.39-2.588-5.189-3.881-8.33-3.881-3.14 0-5.87 1.225-8.056 3.608-2.253 2.52-3.345 5.448-3.345 8.853 0 3.404 1.092 6.332 3.345 8.852 2.253 2.451 4.984 3.677 8.057 3.677 3.072 0 5.871-1.294 8.33-3.95l2.935 3.133v.68zm32.568-.004c-3.209 3.405-6.964 5.107-11.265 5.107-4.37 0-8.125-1.702-11.266-5.107-3.14-3.404-4.71-7.558-4.71-12.325 0-4.766 1.57-8.852 4.71-12.325 3.141-3.404 6.896-5.107 11.266-5.107 4.301 0 8.056 1.703 11.265 5.107 3.141 3.473 4.711 7.627 4.711 12.325 0 4.835-1.57 8.92-4.711 12.325zm-3.209-21.177c-2.253-2.383-4.916-3.609-8.056-3.609-3.141 0-5.872 1.226-8.057 3.61-2.253 2.519-3.345 5.447-3.345 8.851 0 3.405 1.092 6.333 3.345 8.852 2.253 2.452 4.984 3.677 8.057 3.677 3.072 0 5.803-1.225 8.056-3.677 2.185-2.45 3.277-5.379 3.277-8.852.069-3.404-1.024-6.4-3.277-8.852zm36.186 19.748c-.478 1.158-1.229 2.18-2.253 3.133-1.98 1.77-4.233 2.655-6.691 2.655H133V.816h12.973c2.526 0 4.779.886 6.691 2.588 1.98 1.907 3.004 4.222 3.004 7.014 0 3.132-1.297 5.379-3.823 6.877 3.004 1.362 4.506 3.813 4.506 7.286.068 1.43-.205 2.656-.683 3.813zm-6.145-21.313a5.434 5.434 0 0 0-3.482-1.226h-8.466v9.125h8.466a5.434 5.434 0 0 0 3.482-1.226c1.024-.885 1.57-1.975 1.57-3.336 0-1.362-.546-2.452-1.57-3.337zm.683 14.163c-.956-.817-2.185-1.225-3.482-1.225h-9.149v9.192h9.149c1.365 0 2.526-.408 3.482-1.225 1.092-.817 1.57-1.907 1.57-3.337.069-1.43-.478-2.52-1.57-3.405zm38.644 8.579c-3.209 3.405-6.964 5.107-11.266 5.107-4.369 0-8.124-1.702-11.265-5.107-3.141-3.404-4.711-7.558-4.711-12.325 0-4.766 1.57-8.852 4.711-12.325C169.46 1.77 173.215.066 177.584.066c4.302 0 8.057 1.703 11.266 5.107 3.14 3.473 4.711 7.627 4.711 12.325 0 4.835-1.571 8.92-4.711 12.325zm-3.209-21.177c-2.253-2.383-4.916-3.609-8.057-3.609-3.14 0-5.871 1.226-8.056 3.61-2.253 2.519-3.346 5.447-3.346 8.851 0 3.405 1.093 6.333 3.346 8.852 2.253 2.452 4.984 3.677 8.056 3.677 3.073 0 5.804-1.225 8.057-3.677 2.185-2.45 3.277-5.379 3.277-8.852 0-3.404-1.092-6.4-3.277-8.852z"
    />
  </symbol>
  <symbol id="mobile-hamburger" viewBox="0 0 22 20">
    <path
      d="M21.15.453H.85a.85.85 0 0 0 0 1.7h20.3a.85.85 0 0 0 0-1.7zm0 8.699H.85a.85.85 0 1 0 0 1.7h20.3a.85.85 0 1 0 0-1.7zm0 8.7H.85a.85.85 0 1 0 0 1.7h20.3a.85.85 0 0 0 0-1.7z"
    />
  </symbol>
  <symbol id="lang" viewBox="0 0 32 32">
    <path
      stroke-miterlimit="10"
      stroke-width="1.8"
      d="M16 31c8.284 0 15-6.716 15-15 0-8.284-6.716-15-15-15C7.716 1 1 7.716 1 16c0 8.284 6.716 15 15 15z"
    />
    <path
      stroke-miterlimit="10"
      stroke-width="1.8"
      d="M23.9 16c0 8.3-3.6 15-7.9 15-4.4 0-7.9-6.7-7.9-15S11.7 1 16 1c4.4 0 7.9 6.7 7.9 15zM2 10.7h28m0 10.6H2M16 31V1"
    />
  </symbol>
  <symbol id="search" viewBox="0 0 29 30">
    <path
      fill="none"
      stroke-width="1.8"
      d="M24.1 12.5c0 6.407-5.194 11.6-11.6 11.6C6.093 24.1.9 18.906.9 12.5.9 6.093 6.093.9 12.5.9s11.6 5.193 11.6 11.6z"
    />
    <path fill="none" stroke-linecap="round" stroke-linejoin="round" stroke-width="1.36" d="M5 11a6 6 0 0 1 6-6" />
    <rect width="11" height="3" x="21.41" y="19" rx="1.5" transform="rotate(45 21.414 19)" stroke="none" />
  </symbol>
  <symbol id="my-page" viewBox="0 0 31 31">
    <path
      stroke-width="1.8"
      d="M21 6.5a5.5 5.5 0 1 1-11 0 5.5 5.5 0 0 1 11 0zm8.393 13.156C27.49 25.734 21.975 30.1 15.5 30.1c-6.475 0-11.99-4.366-13.893-10.444-.307-.981-.04-1.885.588-2.576C2.838 16.374 3.86 15.9 5 15.9h21c1.139 0 2.162.474 2.805 1.18.629.69.895 1.595.588 2.576z"
    />
  </symbol>
  <symbol id="cart" viewBox="0 0 35 32">
    <path stroke-width="2" d="M13 13.5V6c0-1.5.9-4.5 4.5-4.5S22 4.5 22 6v7.5" />
    <path
      stroke-width="1.8"
      d="M33.072 16.164C30.683 24.74 24.504 30.6 17.5 30.6S4.316 24.74 1.928 16.164c-.5-1.798.022-3.459 1.163-4.698C4.245 10.214 6.033 9.4 8 9.4h19c1.967 0 3.755.814 4.909 2.066 1.141 1.24 1.664 2.9 1.163 4.698z"
    />
  </symbol>
  <symbol id="mobile-cart" viewBox="0 0 25 23">
    <path
      stroke-width="1.5"
      d="M9.193 10.225V4.903c0-1.065.636-3.194 3.182-3.194s3.182 2.129 3.182 3.194v5.322"
    />
    <path
      stroke-width="1.5"
      d="M22.553 14.197c-2.025 4.895-5.887 8.053-10.178 8.053-4.291 0-8.153-3.158-10.178-8.053-.721-1.744-.29-3.395.825-4.649C4.155 8.276 5.992 7.428 8 7.428h8.75c2.007 0 3.845.848 4.978 2.12 1.115 1.254 1.546 2.905.825 4.65z"
    />
  </symbol>
  <symbol id="main-slide-arrow-prev" viewBox="0 0 50 17"><path d="M50 8.5H.545m0 0c2.667.242 8-1.018 8-8m-8 8c2.667 0 8 1.6 8 8" /></symbol>
  <symbol id="main-slide-arrow-next" viewBox="0 0 50 17">
    <path d="M0 8.5h49.455m0 0c-2.667.242-8-1.018-8-8m8 8c-2.667 0-8 1.6-8 8" />
  </symbol>
  <symbol id="collection-arrow-prev" viewBox="0 0 35 67"><path stroke="#009BDE" stroke-width="1.5" d="M33.53 1.5l-32 32 32 32" /></symbol>
  <symbol id="collection-arrow-next" viewBox="0 0 35 67"><path stroke="#009BDE" stroke-width="1.5" d="M1.47 1.5l32 32-32 32" /></symbol>
  <symbol id="review-arrow-prev" viewBox="0 0 30 57"><path stroke="#009BDE" stroke-width="2" d="M28.53 1.5l-27 27 27 27" /></symbol>
  <symbol id="review-arrow-next" viewBox="0 0 30 57"><path stroke="#009BDE" stroke-width="2" d="M1.47 1.5l27 27-27 27" /></symbol>
  <symbol id="review-mobile-arrow-prev" viewBox="0 0 12 21"><path stroke="#009BDE" stroke-width="1.5" d="M11 1.5l-9 9 9 9" /></symbol>
  <symbol id="review-mobile-arrow-next" viewBox="0 0 12 21"><path stroke="#009BDE" stroke-width="1.5" d="M1 1.5l9 9-9 9" /></symbol>
  <symbol id="kakao-page-square" viewBox="0 0 25 25">
    <path
      d="M19.8 0H5.2C2.3 0 0 2.3 0 5.2v14.6C0 22.7 2.3 25 5.2 25h14.6c2.9 0 5.2-2.3 5.2-5.2V5.2C25 2.3 22.7 0 19.8 0zm-7.3 17.4c-.5 0-1 0-1.4-.1-.8.6-1.8 1.2-2.6 1.8 0 0-.2.1-.3 0-.2-.1-.2-.2-.2-.3.2-.6.4-1.5.6-2.3-2-1-3.2-2.8-3.2-4.9 0-.6.1-1.2.4-1.8v-.1c1-2.3 3.6-3.9 6.8-3.9 4 0 7.2 2.6 7.2 5.8-.2 3.2-3.4 5.8-7.3 5.8z"
    />
  </symbol>
  <symbol id="instagram-square" viewBox="0 0 25 25">
    <path
      fill="#DC272D"
      fill-rule="evenodd"
      clip-rule="evenodd"
      d="M6.25 0h12.5A6.25 6.25 0 0 1 25 6.25v12.5A6.25 6.25 0 0 1 18.75 25H6.25A6.25 6.25 0 0 1 0 18.75V6.25A6.25 6.25 0 0 1 6.25 0zM22 5.75a1.25 1.25 0 1 1-2.5 0 1.25 1.25 0 0 1 2.5 0zm-9.5 3a3.75 3.75 0 1 0 0 7.5 3.75 3.75 0 0 0 0-7.5zM6.25 12.5a6.25 6.25 0 1 1 12.5 0 6.25 6.25 0 0 1-12.5 0z"
    />
  </symbol>
  <symbol id="youtube-square" viewBox="0 0 25 25">
    <path
      fill="#DC272D"
      fill-rule="evenodd"
      clip-rule="evenodd"
      d="M5 0a5 5 0 0 0-5 5v15a5 5 0 0 0 5 5h15a5 5 0 0 0 5-5V5a5 5 0 0 0-5-5H5zm3.75 7.503v10l8-5-8-5z"
    />
  </symbol>
  <symbol id="right-wing-talk-balloon" viewBox="0 0 56 63">
    <path d="M56 28c0 15.464-12.536 28-28 28S0 43.464 0 28 12.536 0 28 0s28 12.536 28 28z" />
    <path d="M28 62.5v-61l28 27c0 21.6-18.667 31.667-28 34z" />
  </symbol>
  <symbol id="right-wing-arrow-top" viewBox="0 0 21 13"><path stroke="#fff" stroke-width="2" d="M20 11.5L10.5 2 1 11.5" /></symbol>
  <symbol id="pagination-arrow-prev" viewBox="0 0 9 18"><path stroke="#6F6F6F" stroke-width="1.2" d="M8.5 1.5L1 9l7.5 7.5" /></symbol>
  <symbol id="pagination-arrow-next" viewBox="0 0 9 18"><path stroke="#6F6F6F" stroke-width="1.2" d="M.5 1.5L8 9 .5 16.5" /></symbol>
  <symbol id="btn-close-x-circle" viewBox="0 0 35 35"><circle cx="17.5" cy="17.5" r="17" stroke="#009BDE"/><path stroke="#009BDE" stroke-width="1.5" d="M22.5 12.5l-10 10m0-10l10 10"/></symbol>
  <symbol id="kakao-talk-balloon" viewBox="0 0 20 17">
    <path fill="#3C1E1E" d="M9.8 0C4.94 0 1 3.212 1 7.174c0 2.579 1.67 4.84 4.175 6.104-.184.709-.667 2.567-.763 2.965-.12.493.175.486.368.354.152-.105 2.411-1.689 3.387-2.373a10.79 10.79 0 0 0 1.633.124c4.86 0 8.8-3.212 8.8-7.174S14.66 0 9.8 0z" />
  </symbol>
  <symbol id="facebook-logo" viewBox="0 0 9 20">
    <path fill="#fff" fill-rule="evenodd" clip-rule="evenodd" d="M5.947 19.167V9.582h2.646l.35-3.303H5.947l.004-1.653c0-.861.082-1.323 1.32-1.323h1.653V0H6.278C3.1 0 1.981 1.602 1.981 4.297V6.28H0v3.303h1.981v9.584h3.966z" />
  </symbol>
  <symbol id="coupon" viewBox="0 0 289 203">
    <path
      fill="#EEF8FF"
      stroke="#A9C8DD"
      d="M265 98a8.992 8.992 0 0 0 8.5 8.986v8.028A8.992 8.992 0 0 0 265 124a8.992 8.992 0 0 0 8.5 8.986V143.5h-258v-10.514A8.992 8.992 0 0 0 24 124a8.992 8.992 0 0 0-8.5-8.986v-8.028A8.992 8.992 0 0 0 24 98a8.993 8.993 0 0 0-8.5-8.986v-8.028A8.993 8.993 0 0 0 24 72a8.993 8.993 0 0 0-8.5-8.986v-8.028A8.993 8.993 0 0 0 24 46a8.993 8.993 0 0 0-8.5-8.986v-8.028A8.993 8.993 0 0 0 24 20a8.993 8.993 0 0 0-8.5-8.986V.5h258v10.514A8.993 8.993 0 0 0 265 20a8.993 8.993 0 0 0 8.5 8.986v8.028A8.993 8.993 0 0 0 265 46a8.993 8.993 0 0 0 8.5 8.986v8.028A8.993 8.993 0 0 0 265 72a8.993 8.993 0 0 0 8.5 8.986v8.028A8.993 8.993 0 0 0 265 98z"
    />
    <path stroke="#A9C8DD" stroke-dasharray="3 4" stroke-width=".5" d="M44.25 30.25h.5v85.5h-.5zm200 0h.5v85.5h-.5z" />
    <path
      fill="#3F414B"
      d="M92.73 47.442v-.668l1.422-.319v.972c0 .658.16 1.151.479 1.48.319.329.75.493 1.29.493.523 0 .934-.164 1.234-.493.3-.329.45-.788.45-1.378v-7.311h1.421v7.21c0 .928-.285 1.71-.856 2.35-.56.628-1.305.942-2.234.942-.996 0-1.78-.295-2.35-.885-.57-.6-.855-1.397-.855-2.393zm11.376-5.063c-.725.706-1.088 1.697-1.088 2.974 0 1.276.363 2.273 1.088 2.988.725.716 1.601 1.074 2.626 1.074s1.9-.358 2.625-1.074c.726-.715 1.088-1.712 1.088-2.988 0-1.277-.362-2.268-1.088-2.974-.725-.716-1.6-1.073-2.625-1.073s-1.901.357-2.626 1.073zm-2.539 2.974c0-.832.145-1.591.436-2.278.299-.686.691-1.247 1.175-1.682a5.452 5.452 0 0 1 1.653-1.03 5.11 5.11 0 0 1 1.901-.363c.657 0 1.291.12 1.9.363a5.269 5.269 0 0 1 1.639 1.03c.493.435.885.996 1.175 1.682.3.687.45 1.446.45 2.278 0 1.102-.256 2.07-.769 2.901-.503.832-1.141 1.45-1.915 1.857-.773.406-1.6.61-2.48.61-.88 0-1.707-.204-2.481-.61-.774-.406-1.417-1.025-1.929-1.857-.503-.832-.755-1.799-.755-2.901zm14.46 5.149h-1.451V40.218h1.451v10.284zm11.797 0h-1.479l-5.556-8.384v8.384h-1.422V40.218h1.9l5.136 7.891v-7.891h1.421v10.284zm7.684-10.284h3.351c.957 0 1.712.256 2.263.768.561.513.841 1.185.841 2.017 0 .532-.14.991-.42 1.378a2.38 2.38 0 0 1-1.117.841c.57.145 1.02.45 1.349.914.338.455.508.977.508 1.567 0 .812-.295 1.484-.885 2.016-.59.522-1.354.783-2.292.783h-3.598V40.218zm1.422 4.496h1.769c.561 0 1.006-.15 1.335-.45.329-.309.493-.705.493-1.189 0-.493-.169-.885-.507-1.175-.339-.29-.798-.435-1.379-.435h-1.711v3.25zm0 4.541h1.973c.58 0 1.044-.15 1.392-.45.358-.3.537-.696.537-1.19 0-.512-.16-.918-.479-1.218-.319-.31-.783-.464-1.392-.464h-2.031v3.322zm14.282 1.247h-6.252V40.218h6.252v1.32h-4.831V44.7h4.381v1.335h-4.381v3.148h4.831v1.32zm11.359 0h-1.479l-5.556-8.384v8.384h-1.422V40.218h1.9l5.136 7.891v-7.891h1.421v10.284zm9.584 0h-6.252V40.218h6.252v1.32h-4.83V44.7h4.381v1.335h-4.381v3.148h4.83v1.32zm4.324 0h-1.421V40.218h6.252v1.32h-4.831v3.307h4.381v1.335h-4.381v4.322zm8.744 0h-1.45V40.218h1.45v10.284zm10.478-8.964h-3.438v8.965h-1.422v-8.965h-3.438v-1.32h8.298v1.32z"
    />
    <path
      fill="#1C34BC"
      d="M80.035 98.559c-1.822 0-3.29-.445-4.401-1.336C74.544 96.31 74 94.85 74 92.84c.378-.867.922-1.278 1.634-1.232.533 0 .933.182 1.2.547.29.366.445.993.467 1.884l.067 2.534c.645.228 1.378.342 2.2.342.845 0 1.623-.183 2.335-.548a4.442 4.442 0 0 0 1.767-1.712c.445-.776.667-1.735.667-2.876 0-1.324-.356-2.317-1.067-2.98-.69-.661-1.645-.992-2.868-.992h-1.067l.3-1.644h1.1c.823 0 1.612-.182 2.368-.548a4.606 4.606 0 0 0 1.834-1.712c.49-.776.734-1.746.734-2.91 0-1.278-.312-2.203-.934-2.774-.6-.57-1.378-.856-2.334-.856a6.87 6.87 0 0 0-2.034.308l-.3 2.295c-.2 1.438-.834 2.157-1.9 2.157a1.66 1.66 0 0 1-1.001-.343c-.29-.228-.478-.49-.567-.787.222-1.69.911-2.99 2.067-3.904 1.178-.913 2.712-1.37 4.602-1.37 2 0 3.479.492 4.435 1.473.956.982 1.433 2.192 1.433 3.63 0 1.46-.5 2.728-1.5 3.8-1 1.073-2.379 1.838-4.135 2.295 3.09.639 4.635 2.35 4.635 5.136 0 1.347-.367 2.51-1.1 3.492-.734.982-1.712 1.735-2.935 2.26-1.222.502-2.578.754-4.068.754zm9.915 5.033l-.434-1.198c1.734-.708 3.1-1.872 4.101-3.493l-.967-.89a2.316 2.316 0 0 1-.8-.993 3.374 3.374 0 0 1-.233-1.199c0-.616.21-1.175.633-1.678.422-.525 1.045-.787 1.867-.787.734 0 1.39.228 1.968.685.11.228.189.456.233.685.067.205.1.456.1.753a7.34 7.34 0 0 1-.833 3.424 8.372 8.372 0 0 1-2.268 2.842c-.956.822-2.078 1.438-3.368 1.849zm17.528-5.102c-1.8 0-3.245-.639-4.335-1.917-1.067-1.279-1.6-3.128-1.6-5.547 0-2.17.256-4.166.767-5.993.533-1.849 1.256-3.458 2.167-4.828.934-1.392 2.001-2.465 3.201-3.218 1.201-.776 2.479-1.164 3.835-1.164 1.867 0 3.312.616 4.335 1.849 1.044 1.232 1.567 3.07 1.567 5.512 0 2.215-.278 4.258-.834 6.13-.533 1.871-1.267 3.492-2.2 4.862-.912 1.37-1.968 2.43-3.168 3.184-1.178.754-2.423 1.13-3.735 1.13zm.267-1.643c.778 0 1.523-.388 2.234-1.165.734-.799 1.389-1.86 1.967-3.184.578-1.347 1.034-2.854 1.367-4.52.356-1.69.534-3.424.534-5.205 0-1.37-.122-2.43-.367-3.184-.244-.776-.567-1.324-.967-1.644a1.91 1.91 0 0 0-1.267-.479c-.733 0-1.467.377-2.201 1.13-.711.73-1.367 1.746-1.967 3.047-.578 1.279-1.045 2.751-1.4 4.418a25.02 25.02 0 0 0-.534 5.238c0 1.439.111 2.569.334 3.39.222.8.522 1.359.9 1.678.4.32.856.48 1.367.48zm17.35 1.643c-1.801 0-3.246-.639-4.335-1.917-1.067-1.279-1.601-3.128-1.601-5.547 0-2.17.256-4.166.767-5.993.534-1.849 1.256-3.458 2.168-4.828.933-1.392 2-2.465 3.201-3.218 1.2-.776 2.478-1.164 3.834-1.164 1.868 0 3.313.616 4.335 1.849 1.045 1.232 1.567 3.07 1.567 5.512 0 2.215-.277 4.258-.833 6.13-.534 1.871-1.267 3.492-2.201 4.862-.911 1.37-1.967 2.43-3.168 3.184-1.178.754-2.423 1.13-3.734 1.13zm.267-1.643c.778 0 1.522-.388 2.234-1.165.733-.799 1.389-1.86 1.967-3.184.578-1.347 1.034-2.854 1.367-4.52.356-1.69.534-3.424.534-5.205 0-1.37-.123-2.43-.367-3.184-.245-.776-.567-1.324-.967-1.644a1.91 1.91 0 0 0-1.267-.479c-.734 0-1.467.377-2.201 1.13-.711.73-1.367 1.746-1.967 3.047-.578 1.279-1.045 2.751-1.401 4.418a25.088 25.088 0 0 0-.533 5.238c0 1.439.111 2.569.333 3.39.222.8.523 1.359.9 1.678.401.32.856.48 1.368.48zm17.349 1.643c-1.8 0-3.245-.639-4.334-1.917-1.067-1.279-1.601-3.128-1.601-5.547 0-2.17.256-4.166.767-5.993.534-1.849 1.256-3.458 2.167-4.828.934-1.392 2.001-2.465 3.201-3.218 1.201-.776 2.479-1.164 3.835-1.164 1.867 0 3.312.616 4.335 1.849 1.045 1.232 1.567 3.07 1.567 5.512 0 2.215-.278 4.258-.834 6.13-.533 1.871-1.267 3.492-2.2 4.862-.912 1.37-1.968 2.43-3.168 3.184-1.178.754-2.423 1.13-3.735 1.13zm.267-1.643c.778 0 1.523-.388 2.234-1.165.734-.799 1.39-1.86 1.968-3.184.578-1.347 1.033-2.854 1.367-4.52a25.24 25.24 0 0 0 .533-5.205c0-1.37-.122-2.43-.367-3.184-.244-.776-.566-1.324-.967-1.644a1.91 1.91 0 0 0-1.267-.479c-.733 0-1.467.377-2.2 1.13-.712.73-1.368 1.746-1.968 3.047-.578 1.279-1.045 2.751-1.4 4.418a25.02 25.02 0 0 0-.534 5.238c0 1.439.111 2.569.334 3.39.222.8.522 1.359.9 1.678.4.32.856.48 1.367.48zm15.549 1.267a127.654 127.654 0 0 0-.466-6.815c-.178-2.031-.389-3.96-.634-5.786-.067-.594-.178-.959-.333-1.096a.662.662 0 0 0-.534-.24c-.489 0-1.123.582-1.901 1.747l-.766-.72c1.489-2.67 3.012-4.006 4.568-4.006.778 0 1.356.229 1.734.685.378.434.622 1.13.733 2.089.178 1.392.323 2.967.434 4.725.111 1.758.2 3.493.266 5.205a97.764 97.764 0 0 0 3.101-5.753 119.377 119.377 0 0 0 2.968-6.369h2.134c.045.366.089.948.134 1.747.066.799.133 1.7.2 2.705.066 1.004.133 2.043.2 3.116.089 1.05.166 2.043.233 2.979.067.913.122 1.666.167 2.26a81.1 81.1 0 0 0 2.534-3.664 70.472 70.472 0 0 0 2.267-3.835l-.333-1.199a14.821 14.821 0 0 1-.3-1.061 4.662 4.662 0 0 1-.133-1.027c0-.936.233-1.61.7-2.02a2.528 2.528 0 0 1 1.734-.651c.289.023.533.08.733.171.223.091.4.194.534.308.111.183.189.388.233.617.067.228.1.547.1.958 0 .411-.089.925-.267 1.541-.177.617-.611 1.575-1.3 2.876-.8 1.53-1.867 3.22-3.201 5.068a58.717 58.717 0 0 1-4.535 5.513l-1.7.171-.301-.24c-.044-.479-.1-1.152-.166-2.02a252.58 252.58 0 0 0-.234-2.808c-.066-1.027-.144-2.02-.233-2.978a78.187 78.187 0 0 0-.2-2.466 76.489 76.489 0 0 1-1.767 3.39 87.174 87.174 0 0 1-2.068 3.595 47.637 47.637 0 0 1-2.201 3.356l-1.833.171-.301-.24zm27.038.445c-1.111 0-2.134-.229-3.068-.685-.911-.48-1.633-1.187-2.167-2.123-.533-.936-.8-2.1-.8-3.493 0-1.484.233-2.887.7-4.211a12.101 12.101 0 0 1 2.001-3.527 9.69 9.69 0 0 1 2.934-2.431 7.53 7.53 0 0 1 3.601-.89c1.712 0 3.124.524 4.235 1.574 1.111 1.028 1.667 2.591 1.667 4.692 0 1.46-.233 2.864-.7 4.211a12.42 12.42 0 0 1-1.934 3.561 9.302 9.302 0 0 1-2.901 2.431 7.46 7.46 0 0 1-3.568.89zm.367-1.61c.734 0 1.4-.274 2.001-.822.622-.57 1.156-1.323 1.6-2.26a13.69 13.69 0 0 0 1.001-3.15c.244-1.164.366-2.328.366-3.492 0-1.621-.233-2.762-.7-3.424-.467-.662-1.078-.993-1.834-.993-.733 0-1.411.274-2.034.821-.6.548-1.134 1.29-1.6 2.226-.445.913-.801 1.952-1.067 3.116a17.245 17.245 0 0 0-.367 3.561c0 1.62.244 2.762.733 3.424.512.662 1.145.993 1.901.993zm14.73 1.131l-3.267.273-.4-.342 2.767-13.525-2.801-.309.167-1.164 6.235-1.849.534.445-.667 3.356c1.111-1.096 2.278-1.998 3.501-2.705 1.223-.708 2.356-1.062 3.401-1.062.712 0 1.278.217 1.701.65.422.435.633 1.085.633 1.953a7.93 7.93 0 0 1-.166 1.575 23 23 0 0 1-.334 1.61l-1.534 6.402c-.089.388-.177.73-.266 1.027a3.43 3.43 0 0 0-.1.72c0 .456.2.684.6.684.733 0 1.689-.764 2.867-2.294l.901.685a12.169 12.169 0 0 1-1.601 2.089 8.92 8.92 0 0 1-2.067 1.643 5.018 5.018 0 0 1-2.434.617c-.645 0-1.156-.16-1.534-.48-.356-.32-.534-.764-.534-1.335 0-.457.045-.913.134-1.37.111-.456.244-.993.4-1.61l1.334-5.58c.133-.548.244-1.062.333-1.541.111-.502.167-.913.167-1.233 0-.89-.345-1.335-1.034-1.335-.533 0-1.2.216-2.001.65-.8.434-1.7 1.096-2.7 1.986l-.867 4.11a208.98 208.98 0 0 0-.701 3.629 625.342 625.342 0 0 0-.667 3.63z"
    />
    <path
      fill="#6F6F6F"
      d="M37.157 174.877l1.027-1.235 1.027 1.235.572-.416-.832-1.352 1.417-.585-.22-.663-1.483.351-.13-1.56h-.702l-.13 1.573-1.482-.364-.22.663 1.403.585-.819 1.352.572.416zm7.87-2.548h3.264v5.811h-3.263v-5.811zm-1.04 6.669h5.344v-7.527h-5.343v7.527zm10.427-4.043H52.49v-4.641h-1.066v11.648h1.066v-6.11h1.924v-.897zm6.889-.052H59.47c.325-1.027.455-2.132.455-3.224h-4.46v.858h3.433a8.945 8.945 0 0 1-.3 1.859l-3.704.247.143.91 3.276-.325c-.572 1.365-1.638 2.587-3.42 3.549l.612.767c1.859-1.04 2.99-2.34 3.64-3.77h2.158v5.59h1V170.6h-1v4.303zm2.418-4.615v11.661h1.014v-11.661H63.72zm11.985.026H74.64v7.215h1.066v-7.215zm-2.405 5.2c-1.625.273-3.003.325-5.434.325v-1.521h4.173v-.845h-4.173v-1.456h4.498v-.858H66.8v5.538h.949c2.548 0 3.965-.052 5.668-.338l-.117-.845zm-1.47 5.603c-1.767 0-2.846-.481-2.846-1.287 0-.832 1.079-1.3 2.847-1.3 1.78 0 2.86.468 2.86 1.3 0 .806-1.08 1.287-2.86 1.287zm0-3.419c-2.417 0-3.9.767-3.9 2.132 0 1.352 1.483 2.119 3.9 2.119 2.432 0 3.914-.767 3.914-2.119 0-1.365-1.482-2.132-3.913-2.132zm17.909-2.951c-2.119-.312-4.199-1.755-4.199-3.38v-.65h-1.118v.65c0 1.664-2.054 3.068-4.173 3.38l.429.858c1.82-.312 3.575-1.313 4.303-2.73.754 1.404 2.509 2.418 4.316 2.73l.442-.858zm.507 2.119h-10.53v.884h4.706v4.225h1.066v-4.225h4.771l-.013-.884zm10.334-6.565h-1.066v8.554h1.066v-8.554zm-2.548 5.811c-1.729-.637-2.912-2.223-2.912-3.978v-1.183h-1.066v1.183c0 1.82-1.17 3.51-2.925 4.186l.559.871a5.231 5.231 0 0 0 2.912-3.12c.52 1.326 1.547 2.379 2.873 2.886l.559-.845zm-3.887 4.719v-2.769H93.08v3.64h7.852v-.871h-6.786zm13.454.299c-1.846 0-2.925-.455-2.925-1.274s1.079-1.274 2.925-1.274c1.82 0 2.899.455 2.899 1.274s-1.079 1.274-2.899 1.274zm0-3.38c-2.496 0-4.004.754-4.004 2.106 0 1.352 1.508 2.106 4.004 2.106 2.47 0 3.978-.754 3.978-2.106 0-1.352-1.508-2.106-3.978-2.106zm.533-1.69v-1.352h3.51v-.858h-6.929v-2.158h6.851v-.858h-7.917v3.874h3.419v1.352h-4.745v.858h10.556v-.858h-4.745zm9.281-4.901c-1.807 0-3.12 1.105-3.12 2.743 0 1.625 1.313 2.743 3.12 2.743 1.82 0 3.12-1.118 3.12-2.743 0-1.638-1.3-2.743-3.12-2.743zm0 .91c1.209 0 2.08.741 2.08 1.833 0 1.079-.871 1.833-2.08 1.833-1.196 0-2.08-.754-2.08-1.833 0-1.092.884-1.833 2.08-1.833zm4.654-1.768v11.687h1.066v-11.687h-1.066zm-8.229 9.126c2.106 0 4.927-.026 7.553-.507l-.091-.793c-2.548.39-5.473.403-7.592.403l.13.897zm13.267-1.612h3.328v-.91h-3.328v.91zm12.393-4.29v.871h2.34v4.459h1.079v-8.541h-1.079v3.211h-2.34zm.689 2.743c-1.69-.598-2.834-2.054-2.834-3.575v-.572h2.561v-.871h-6.227v.871h2.6v.585c0 1.651-1.209 3.198-2.938 3.822l.559.832a4.977 4.977 0 0 0 2.938-2.899 4.81 4.81 0 0 0 2.808 2.639l.533-.832zm-3.653 4.563v-2.73h-1.079v3.601h7.787v-.871h-6.708zm11.478-7.501h2.158v-.884h-2.145v-1.729h-1.027v1.729h-2.158v.884h2.158v.559c0 1.911-.897 3.952-2.47 4.888l.624.793c1.144-.689 1.963-1.989 2.366-3.471.429 1.404 1.261 2.587 2.392 3.224l.611-.806c-1.573-.845-2.509-2.769-2.509-4.628v-.559zm3.146 1.573h-1.781v.884h1.781v5.564h1.014v-10.777h-1.014v4.329zm2.34-4.602v11.648h1.027v-11.648h-1.027zm7.708 10.829c-1.846 0-2.925-.455-2.925-1.274s1.079-1.274 2.925-1.274c1.82 0 2.899.455 2.899 1.274s-1.079 1.274-2.899 1.274zm0-3.38c-2.496 0-4.004.754-4.004 2.106 0 1.352 1.508 2.106 4.004 2.106 2.47 0 3.978-.754 3.978-2.106 0-1.352-1.508-2.106-3.978-2.106zm.533-1.69v-1.352h3.51v-.858h-6.929v-2.158h6.851v-.858h-7.917v3.874h3.419v1.352h-4.745v.858h10.556v-.858h-4.745zm9.281-4.901c-1.807 0-3.12 1.105-3.12 2.743 0 1.625 1.313 2.743 3.12 2.743 1.82 0 3.12-1.118 3.12-2.743 0-1.638-1.3-2.743-3.12-2.743zm0 .91c1.209 0 2.08.741 2.08 1.833 0 1.079-.871 1.833-2.08 1.833-1.196 0-2.08-.754-2.08-1.833 0-1.092.884-1.833 2.08-1.833zm4.654-1.768v11.687h1.066v-11.687h-1.066zm-8.229 9.126c2.106 0 4.927-.026 7.553-.507l-.091-.793c-2.548.39-5.473.403-7.592.403l.13.897zm17.492-8.112h-1.053v2.093c0 2.21-1.417 4.446-3.133 5.265l.65.871c1.365-.702 2.483-2.158 3.016-3.913.559 1.664 1.677 3.042 3.003 3.692l.637-.858c-1.729-.78-3.12-2.925-3.12-5.057v-2.093zm4.342-1.014v11.687h1.066v-11.687h-1.066zm11.968 5.694c-1.69-.598-2.834-2.067-2.834-3.562v-.468h2.561v-.871h-6.227v.871h2.6v.468c0 1.651-1.209 3.211-2.938 3.822l.559.845a4.941 4.941 0 0 0 2.925-2.912 4.832 4.832 0 0 0 2.821 2.639l.533-.832zm-5.07 2.782h6.721v3.198h1.079v-4.056h-7.8v.858zm6.721-8.476v3.042h-2.275v.871h2.275v3.068h1.079v-6.981h-1.079zm8.046 10.829c-1.833 0-2.912-.455-2.912-1.248 0-.793 1.079-1.248 2.912-1.248 1.82 0 2.912.455 2.912 1.248 0 .793-1.092 1.248-2.912 1.248zm0-3.328c-2.496 0-3.991.741-3.991 2.08s1.495 2.067 3.991 2.067c2.509 0 3.991-.728 3.991-2.067 0-1.339-1.482-2.08-3.991-2.08zm-1.612-3.094a10.12 10.12 0 0 0 3.237 0v1.365h-3.237v-1.365zm-1.391-2.028c0-.845 1.144-1.339 3.003-1.339 1.859 0 3.003.494 3.003 1.339 0 .832-1.144 1.339-3.003 1.339-1.859 0-3.003-.507-3.003-1.339zm5.681 3.393v-1.651c.897-.364 1.417-.962 1.417-1.742 0-1.365-1.56-2.171-4.095-2.171-2.522 0-4.095.806-4.095 2.171 0 .793.507 1.378 1.43 1.755v1.638h-2.613v.858h10.556v-.858h-2.6zm10.919-.585c-1.014.156-2.08.234-3.159.299v-1.209h2.301v-.871h-4.55v-1.95h4.433v-.871h-5.486v3.692h2.236v1.248c-1.17.052-2.314.052-3.289.052l.156.858c2.093-.013 4.888-.052 7.423-.481l-.065-.767zm.962 5.46h-5.525v-1.352h5.525v1.352zm0-2.184h-5.525v-1.222h-1.066v4.264h7.644v-4.264h-1.053v1.222zm-.013-8.45v6.708h1.066v-6.708h-1.066zm4.601 1.118h-1.066v7.514h.962c1.859 0 3.692-.13 5.72-.546l-.117-.91c-1.937.39-3.744.546-5.499.546v-6.604zm6.695-1.131v11.648h1.066v-11.648h-1.066zm4.38 2.002h4.355v-.884h-5.421v7.657h.923c2.197 0 3.731-.078 5.512-.416l-.117-.884c-1.69.299-3.185.39-5.252.39v-5.863zm9.334 2.6h-1.924v-4.602h-1.066v11.687h1.066v-6.201h1.924v-.884zm1.533 6.266c.468 0 .858-.364.858-.897 0-.546-.39-.923-.858-.923-.468 0-.858.377-.858.923 0 .533.39.897.858.897zM10.293 195.877l1.027-1.235 1.027 1.235.572-.416-.832-1.352 1.417-.585-.221-.663-1.482.351-.13-1.56h-.702l-.13 1.573-1.482-.364-.221.663 1.404.585-.82 1.352.573.416zm9.248 3.497c-.91 0-1.547-.741-1.547-1.781 0-1.014.637-1.755 1.547-1.755.897 0 1.547.741 1.547 1.755 0 1.04-.65 1.781-1.547 1.781zm0-4.433c-1.443 0-2.496 1.092-2.496 2.652 0 1.586 1.053 2.665 2.496 2.665s2.496-1.079 2.496-2.665c0-1.56-1.053-2.652-2.496-2.652zm.52-3.302h-1.053v1.651h-2.366v.871h5.785v-.871h-2.366v-1.651zm5.447-.351v4.927h-1.495v-4.654h-1v10.829h1v-5.304h1.495v5.863h1.027v-11.661h-1.027zm9.216 4.745c-1.534.325-2.873.403-5.187.403v-3.38h4.095v-.858h-5.148v5.109h.91c2.457 0 3.848-.078 5.447-.403l-.117-.871zm-1.417 6.058c-1.729 0-2.795-.52-2.795-1.378 0-.858 1.066-1.378 2.795-1.378 1.716 0 2.782.52 2.782 1.378 0 .858-1.066 1.378-2.782 1.378zm0-3.614c-2.366 0-3.848.832-3.848 2.236 0 1.404 1.482 2.236 3.848 2.236 2.353 0 3.835-.832 3.835-2.236 0-1.404-1.482-2.236-3.835-2.236zm3.718-4.147v-3.029h-1.079v6.942h1.08v-3.029h1.715v-.884h-1.716zm10.239-1.027h-2.367V191.6h-1.053v1.703h-2.327v.858h5.746v-.858zm-2.887 6.136c-.884 0-1.508-.741-1.508-1.781 0-1.053.624-1.794 1.508-1.794.858 0 1.495.741 1.495 1.794 0 1.04-.636 1.781-1.495 1.781zm3.887-4.186h-1.599v.858h1.6v1.807h-1.47c.014-.091.014-.182.014-.26 0-1.599-1.027-2.704-2.431-2.704-1.417 0-2.444 1.105-2.444 2.704 0 1.586 1.027 2.691 2.444 2.691 1.04 0 1.885-.611 2.236-1.573h1.65v3.614h1.014v-10.829h-1.014v3.692zm2.158-3.952v11.661h1.015v-11.661h-1.014zm7.878 5.278c-1.222.247-2.262.312-3.926.312v-1.586h3.34v-.819h-3.34v-1.469h3.47v-.858h-4.498v5.603h.742c1.871 0 2.977-.052 4.316-.325l-.105-.858zm-3.458 3.263h6.773v3.12h1.066v-3.978h-7.84v.858zm6.812-8.528v3.029h-1.56v-2.821H59.08v6.773h1.014v-3.081h1.56v3.159h1.026v-7.059h-1.026zm7.76 1.248c1.832 0 3.002.546 3.002 1.469s-1.17 1.456-3.002 1.456c-1.834 0-3.004-.533-3.004-1.456 0-.923 1.17-1.469 3.004-1.469zm0 3.783c2.495 0 4.094-.858 4.094-2.314s-1.599-2.327-4.094-2.327c-2.496 0-4.096.871-4.096 2.327s1.6 2.314 4.096 2.314zm-2.847 2.977H65.5v3.38h8.02v-.871h-6.954v-2.509zm-2.431-1.885v.858h10.543v-.858H64.135zm14.32-4.927v.871h4.199a8.706 8.706 0 0 1-.351 2.041l-4.433.299.182.936 3.926-.377c-.715 1.56-2.002 2.886-4.16 3.952l.585.819c4.173-2.08 5.317-5.161 5.317-8.541h-5.265zm10.1 3.523h-1.871v-4.732h-1.066v11.661h1.066v-6.045h1.872v-.884zm1.209-3.523v.871h4.199a8.706 8.706 0 0 1-.351 2.041l-4.433.299.182.936 3.926-.377c-.715 1.56-2.002 2.886-4.16 3.952l.585.819c4.173-2.08 5.317-5.161 5.317-8.541h-5.265zm10.1 3.523h-1.871v-4.732h-1.066v11.661h1.066v-6.045h1.872v-.884zm2.522-.91c0-1.339 1.365-2.21 3.224-2.21 1.859 0 3.211.871 3.211 2.21s-1.352 2.21-3.211 2.21c-1.859 0-3.224-.871-3.224-2.21zm3.757 5.46v-2.431c2.171-.156 3.692-1.313 3.692-3.029 0-1.859-1.768-3.055-4.225-3.055-2.47 0-4.251 1.196-4.251 3.055 0 1.716 1.534 2.873 3.705 3.029v2.431h-4.745v.884h10.595v-.884h-4.771zm11.309.065v-2.197h3.731v-.858h-7.176v-1.885h6.903v-3.549h-7.982v.871h6.942v1.82h-6.916v3.601h3.419v2.197h-4.745v.871h10.595v-.871h-4.771zm17.323-9.347h-1.066v8.554h1.066v-8.554zm-2.548 5.811c-1.729-.637-2.912-2.223-2.912-3.978v-1.183h-1.066v1.183c0 1.82-1.17 3.51-2.925 4.186l.559.871a5.231 5.231 0 0 0 2.912-3.12c.52 1.326 1.547 2.379 2.873 2.886l.559-.845zm-3.887 4.719v-2.769h-1.066v3.64h7.852v-.871h-6.786zm18.719-4.693h-1.794c.351-1.846.351-3.172.351-4.225v-.871h-7.761v.884h6.708c0 1.04 0 2.366-.364 4.212h-7.67v.871h2.704v4.94h1.066v-4.94h2.925v4.94h1.053v-4.94h2.782v-.871zm1.39-4.589v.884h4.277c-.247 2.756-1.846 4.992-4.823 6.487l.585.832c3.77-1.885 5.291-4.888 5.291-8.203h-5.33zm10.218 3.484h-1.872v-4.732h-1.066v11.661h1.066v-6.045h1.872v-.884zm8.969-4.719v6.253h1.066v-6.253h-1.066zm-6.448 6.825v4.667h7.514v-4.667h-1.053v1.43h-5.408v-1.43h-1.053zm1.053 2.262h5.408v1.547h-5.408v-1.547zm.195-8.541c-1.755 0-3.029 1.092-3.029 2.678 0 1.612 1.274 2.691 3.029 2.691 1.768 0 3.055-1.079 3.055-2.691 0-1.586-1.287-2.678-3.055-2.678zm0 .884c1.183 0 2.015.741 2.015 1.794 0 1.066-.832 1.807-2.015 1.807-1.157 0-1.989-.741-1.989-1.807 0-1.053.832-1.794 1.989-1.794zm14.398-.429h-1.053v2.093c0 2.21-1.417 4.446-3.133 5.265l.65.871c1.365-.702 2.483-2.158 3.016-3.913.559 1.664 1.677 3.042 3.003 3.692l.637-.858c-1.729-.78-3.12-2.925-3.12-5.057v-2.093zm4.342-1.014v11.687h1.066v-11.687h-1.066zm5.472 8.112c-.936 0-1.521-1.183-1.521-3.094 0-1.872.585-3.055 1.521-3.055.91 0 1.508 1.183 1.508 3.055 0 1.911-.598 3.094-1.508 3.094zm3.939-3.575h-1.469c-.13-2.197-1.066-3.562-2.47-3.562-1.521 0-2.496 1.56-2.496 4.043 0 2.522.975 4.082 2.496 4.082 1.43 0 2.379-1.404 2.47-3.692h1.469v5.681h1.014v-10.829h-1.014v4.277zm2.314-4.537v11.661h1.014v-11.661h-1.014zm7.214 5.59h-3.276v-3.692h3.276v3.692zm1.04-4.55H195.8v5.395h5.356v-5.395zm-2.977 6.695h-1.066v3.666h7.774v-.871h-6.708v-2.795zm6.188-4.186v-3.562h-1.066v8.541h1.066v-4.082h1.716v-.897h-1.716zm11.395 2.145c-1.69-.598-2.834-2.067-2.834-3.562v-.468h2.561v-.871h-6.227v.871h2.6v.468c0 1.651-1.209 3.211-2.938 3.822l.559.845a4.941 4.941 0 0 0 2.925-2.912 4.832 4.832 0 0 0 2.821 2.639l.533-.832zm-5.07 2.782h6.721v3.198h1.079v-4.056h-7.8v.858zm6.721-8.476v3.042h-2.275v.871h2.275v3.068h1.079v-6.981h-1.079zm8.046 10.829c-1.833 0-2.912-.455-2.912-1.248 0-.793 1.079-1.248 2.912-1.248 1.82 0 2.912.455 2.912 1.248 0 .793-1.092 1.248-2.912 1.248zm0-3.328c-2.496 0-3.991.741-3.991 2.08s1.495 2.067 3.991 2.067c2.509 0 3.991-.728 3.991-2.067 0-1.339-1.482-2.08-3.991-2.08zm-1.612-3.094a10.12 10.12 0 0 0 3.237 0v1.365h-3.237v-1.365zm-1.391-2.028c0-.845 1.144-1.339 3.003-1.339 1.859 0 3.003.494 3.003 1.339 0 .832-1.144 1.339-3.003 1.339-1.859 0-3.003-.507-3.003-1.339zm5.681 3.393v-1.651c.897-.364 1.417-.962 1.417-1.742 0-1.365-1.56-2.171-4.095-2.171-2.522 0-4.095.806-4.095 2.171 0 .793.507 1.378 1.43 1.755v1.638h-2.613v.858h10.556v-.858h-2.6zm10.919-.585c-1.014.156-2.08.234-3.159.299v-1.209h2.301v-.871h-4.55v-1.95h4.433v-.871h-5.486v3.692h2.236v1.248c-1.17.052-2.314.052-3.289.052l.156.858c2.093-.013 4.888-.052 7.423-.481l-.065-.767zm.962 5.46h-5.525v-1.352h5.525v1.352zm0-2.184h-5.525v-1.222h-1.066v4.264h7.644v-4.264h-1.053v1.222zm-.013-8.45v6.708h1.066v-6.708h-1.066zm4.601 1.118h-1.066v7.514h.962c1.859 0 3.692-.13 5.72-.546l-.117-.91c-1.937.39-3.744.546-5.499.546v-6.604zm6.695-1.131v11.648h1.066v-11.648h-1.066zm4.38 2.002h4.355v-.884h-5.421v7.657h.923c2.197 0 3.731-.078 5.512-.416l-.117-.884c-1.69.299-3.185.39-5.252.39v-5.863zm9.334 2.6h-1.924v-4.602h-1.066v11.687h1.066v-6.201h1.924v-.884zm1.533 6.266c.468 0 .858-.364.858-.897 0-.546-.39-.923-.858-.923-.468 0-.858.377-.858.923 0 .533.39.897.858.897z"
    />
  </symbol>
  <symbol id="naver-logo" viewBox="0 0 18 16">
    <path
      fill="#fff"
      d="M0 0h6.035s5.476 8.262 5.644 8.484c.163.224.184 0 .184 0-.256-1.278-.528-1.853-.528-3.895V0h6.012v15.306h-6.014S5.968 7.483 5.803 7.27c-.161-.217-.185 0-.185 0 .207 1.056.391 1.23.391 3.065v4.972H0V0z"
    />
  </symbol>
</svg>
